<?xml version="1.0" standalone="no"?>
<!DOCTYPE svg PUBLIC "-//W3C//DTD SVG 20010904//EN"
 "http://www.w3.org/TR/2001/REC-SVG-20010904/DTD/svg10.dtd">
<svg version="1.0" xmlns="http://www.w3.org/2000/svg"
 width="512.000000pt" height="512.000000pt" viewBox="0 0 512.000000 512.000000"
 preserveAspectRatio="xMidYMid meet">
<metadata>
Created by potrace 1.11, written by Peter Selinger 2001-2013
</metadata>
<g transform="translate(0.000000,512.000000) scale(0.100000,-0.100000)"
fill="#000000" stroke="none">
<path d="M1845 5084 c-381 -30 -742 -165 -1040 -388 -103 -76 -305 -278 -381
-381 -353 -472 -473 -1071 -329 -1645 85 -335 255 -631 509 -886 371 -370 842
-565 1366 -565 411 0 809 128 1136 366 l61 44 83 -84 82 -83 -18 -48 c-13 -33
-19 -74 -18 -125 0 -63 6 -87 33 -145 30 -65 63 -100 524 -561 526 -525 532
-530 653 -552 74 -14 156 0 229 36 68 35 283 251 318 319 36 72 50 156 36 229
-22 120 -28 127 -552 652 -461 461 -496 494 -561 524 -58 27 -82 33 -145 33
-51 1 -92 -5 -125 -18 l-48 -18 -83 82 -84 83 44 61 c334 459 449 1058 309
1611 -87 343 -255 637 -508 891 -303 302 -661 483 -1081 548 -105 16 -325 26
-410 20z m430 -394 c488 -103 882 -404 1103 -845 225 -450 210 -1024 -39
-1460 -144 -252 -352 -461 -604 -604 -436 -249 -1007 -264 -1460 -38 -456 227
-765 645 -856 1157 -18 98 -18 401 -1 500 90 513 400 929 862 1160 127 64 303
119 440 139 41 6 86 13 100 15 66 12 359 -4 455 -24z"/>
<path d="M917 3553 c-86 -183 -113 -319 -104 -522 21 -462 333 -856 781 -985
287 -84 622 -36 870 122 l50 32 -131 0 c-662 0 -1223 440 -1372 1076 -23 98
-44 314 -35 351 14 53 -16 16 -59 -74z"/>
</g>
</svg>
